<?xml version="1.0" encoding="utf-8"?>
<!-- Generator: Adobe Illustrator 15.0.2, SVG Export Plug-In . SVG Version: 6.00 Build 0)  -->
<!DOCTYPE svg PUBLIC "-//W3C//DTD SVG 1.1//EN" "http://www.w3.org/Graphics/SVG/1.1/DTD/svg11.dtd">
<svg version="1.1" id="Layer_1" xmlns="http://www.w3.org/2000/svg" xmlns:xlink="http://www.w3.org/1999/xlink" x="0px" y="0px"
	 width="168.619px" height="84.334px" viewBox="367.213 281.166 168.619 84.334"
	 enable-background="new 367.213 281.166 168.619 84.334" xml:space="preserve">
<path fill="#FFFFFF" stroke="#000000" stroke-width="5" stroke-miterlimit="10" d="M410.22,287.833
	c-19.514,0-35.333,15.819-35.333,35.333c0,19.515,15.819,35.333,35.333,35.333s35.333-15.818,35.333-35.333
	C445.553,303.652,429.733,287.833,410.22,287.833z M491.174,287.833c-19.514,0-35.333,15.819-35.333,35.333
	c0,19.515,15.819,35.333,35.333,35.333s35.333-15.818,35.333-35.333C526.507,303.652,510.688,287.833,491.174,287.833z"/>
<path d="M410.22,306.497c-9.205,0-16.668,7.463-16.668,16.668s7.463,16.67,16.668,16.67c9.206,0,16.669-7.465,16.669-16.67
	S419.426,306.497,410.22,306.497z M491.174,306.497c-9.205,0-16.668,7.462-16.668,16.668c0,9.205,7.463,16.67,16.668,16.67
	c9.206,0,16.669-7.465,16.669-16.67C507.843,313.959,500.38,306.497,491.174,306.497z"/>
</svg>
