<?xml version="1.0" encoding="utf-8"?>
<!-- Generator: Adobe Illustrator 15.0.2, SVG Export Plug-In . SVG Version: 6.00 Build 0)  -->
<!DOCTYPE svg PUBLIC "-//W3C//DTD SVG 1.1//EN" "http://www.w3.org/Graphics/SVG/1.1/DTD/svg11.dtd">
<svg version="1.1"
	 id="svg8280" xmlns:dc="http://purl.org/dc/elements/1.1/" xmlns:cc="http://creativecommons.org/ns#" xmlns:svg="http://www.w3.org/2000/svg" xmlns:rdf="http://www.w3.org/1999/02/22-rdf-syntax-ns#"
	 xmlns="http://www.w3.org/2000/svg" xmlns:xlink="http://www.w3.org/1999/xlink" x="0px" y="0px" width="281.356px"
	 height="193.783px" viewBox="-179.286 -120.172 281.356 193.783" enable-background="new -179.286 -120.172 281.356 193.783"
	 xml:space="preserve">
<g id="layer1" transform="translate(-293.78641,-581.89101)">
	<g id="g4955" transform="matrix(1.25,0,0,-1.25,376.28395,623.20929)">
		<path id="path4957" fill="#FF0000" d="M-1.53,18.028c13.316,2.945,18.418,14.544,16.942,31.468
			c-1.568,18.004-12.741,41.964-32.07,39.938c-13.849-1.452-28.053-7.513-41.754-10.893c-14.577-3.596-28.379-6.727-41.754-9.68
			c-3.922-3.137-10.182-3.939-10.892-10.29c28.827,8.007,43.632-40.873,28.441-59.905c-2.411-3.021-6.716-4.091-7.868-7.87
			c24.936-3.713,30.426,24.117,26.627,45.387c5.553-9.857,6.997-30.398,0.604-40.544c14.865,2.598,17.847,19.914,15.734,37.518
			c16.447,4.732,31.952,10.405,49.015,14.523C4.682,37.648,1.34,23.651-1.53,18.028"/>
	</g>
	<g id="g4959" transform="matrix(1.25,0,0,-1.25,312.66307,601.53642)">
		<path id="path4961" fill="#FF0000" d="M-60.767,38.207c-0.369-0.034-0.717-0.089-0.605-0.605
			c22.837-3.927,33.396-45.28,15.129-61.722C-15.803-16.896-28.703,44.324-60.767,38.207"/>
	</g>
	<g id="g4963" transform="matrix(1.25,0,0,-1.25,324.5482,623.90854)">
		<path id="path4965" fill="#FF0000" d="M-49.702,17.377c-0.027,14.251-8.938,30.105-19.363,33.283
			c-19.524,5.951-26.472-13.316-24.205-29.046c1.018-7.084,5.274-17.08,9.683-17.548c-7.981,9.423-12.499,42.697,6.049,44.778
			C-57.277,51.118-47.307,18.53-57.57-0.172C-50.931,0.937-49.69,11.312-49.702,17.377"/>
	</g>
	<g id="g4967" transform="matrix(1.25,0,0,-1.25,360.20408,629.15179)">
		<path id="path4969" fill="#FF0000" d="M-16.503,12.495c6.864,2.56,15.589,4.6,20.574,7.866c7.585,4.969,8.965,15.861,7.868,28.441
			c-14.841-3.918-28.509-9.011-43.57-12.708c2.796-12.403-2.334-25.004-5.445-31.467C-31.208,7.809-23.734,9.797-16.503,12.495"/>
	</g>
	<g id="g4971" transform="matrix(1.25,0,0,-1.25,316.5082,612.37317)">
		<path id="path4973" fill="#FF0000" d="M-57.188,28.117c-4.084-4.279-8.668-12.809-6.052-19.967
			c6.191,2.548,10.388-2.115,12.709-5.447C-49.058,12.843-51.234,23.499-57.188,28.117"/>
	</g>
	<g id="g4975" transform="matrix(1.25,0,0,-1.25,304.27345,638.24067)">
		<path id="path4977" fill="#FF0000" d="M-68.579,4.033c2.465-11.738,14.207,1.042,16.943,4.237
			c1.851,2.162,8.713,7.555,7.263,13.312c-1.138,4.524-5.882,3.9-7.263,3.632C-56.161,24.332-69.825,9.965-68.579,4.033"/>
	</g>
	<g id="g4979" transform="matrix(1.25,0,0,-1.25,293.78645,641.38654)">
		<path id="path4981" fill="#FF0000" d="M-78.344,1.104c0.039-9.506,14.196-5.7,18.155,0c-4.384,0.702-2.861,9.017-4.237,10.893
			C-68.614,7.737-78.374,8.228-78.344,1.104"/>
	</g>
	<g id="g4983" transform="matrix(1.25,0,0,-1.25,304.27345,642.78517)">
		<path id="path4985" fill="#FF0000" d="M-68.579-0.197C-71.5-14.75-61.858-10.2-52.241-6.248
			c7.071,2.901,13.996,2.835,12.104,11.495C-50.295,15.974-56.485-3.54-68.579-0.197"/>
	</g>
</g>
<g>
	<polygon fill="#FF0000" points="-98.007,-92.951 -101.518,-74.835 -94.355,-74.835 -97.866,-92.951 	"/>
	<path fill="#FF0000" d="M-122.83-98.605c-0.445-0.678-1.065-1.182-1.861-1.509c-0.796-0.327-1.849-0.492-3.159-0.492h-3.722v15.589
		h4.072c1.264,0,2.27-0.176,3.02-0.526c0.749-0.352,1.322-0.854,1.721-1.51c0.397-0.655,0.667-1.462,0.807-2.422
		c0.141-0.959,0.211-2.071,0.211-3.336c0-1.264-0.07-2.375-0.211-3.335C-122.092-97.105-122.385-97.926-122.83-98.605z"/>
	<path fill="#FF0000" d="M-61.953-120.172h-105.333c-6.627,0-12,5.373-12,12v50.667c0,6.627,5.373,12,12,12h87.529l8.471,48v-48
		h9.333c6.627,0,12-5.373,12-12v-50.667C-49.953-114.799-55.326-120.172-61.953-120.172z M-120.618-57.349l-6.671-21.347h-4.283
		v21.347h-7.163v-49.998h11.516c8.427,0,12.64,4.893,12.64,14.676c0,2.903-0.457,5.396-1.369,7.478
		c-0.913,2.084-2.517,3.757-4.811,5.021l7.725,22.823H-120.618z M-90.914-57.349l-2.106-10.745h-9.761l-2.106,10.745h-7.163
		l11.166-49.998h5.969l11.165,49.998H-90.914z M-57.383-86.456c-0.258,1.569-0.808,3.032-1.651,4.389
		c-0.983,1.639-2.294,2.915-3.933,3.827c-1.639,0.913-3.792,1.369-6.46,1.369h-3.651v19.522h-7.163v-49.998h10.744
		c1.966,0,3.697,0.258,5.197,0.772c1.497,0.516,2.854,1.429,4.072,2.739c1.217,1.311,2.06,2.844,2.528,4.6
		c0.468,1.755,0.703,4.131,0.703,7.127C-56.997-89.908-57.127-88.024-57.383-86.456z"/>
	<path fill="#FF0000" d="M-64.476-98.113c-0.352-0.773-0.902-1.381-1.65-1.826c-0.749-0.444-1.826-0.667-3.23-0.667h-3.722v16.993
		h3.44c1.451,0,2.575-0.21,3.371-0.631c0.796-0.421,1.38-0.994,1.756-1.721c0.374-0.725,0.597-1.603,0.667-2.633
		c0.07-1.029,0.105-2.177,0.105-3.441c0-1.17-0.035-2.282-0.105-3.336C-63.914-96.427-64.125-97.341-64.476-98.113z"/>
</g>
<path d="M-168.649-107.347h7.163v22.822h0.14l10.463-22.822h7.163l-9.762,20.013l11.586,29.985h-7.583l-8.146-22.19l-3.862,7.233
	v14.958h-7.163V-107.347z"/>
</svg>
