<?xml version="1.0" encoding="UTF-8" standalone="no"?>
<!-- Created with Inkscape (http://www.inkscape.org/) -->

<svg
   xmlns:dc="http://purl.org/dc/elements/1.1/"
   xmlns:cc="http://creativecommons.org/ns#"
   xmlns:rdf="http://www.w3.org/1999/02/22-rdf-syntax-ns#"
   xmlns:svg="http://www.w3.org/2000/svg"
   xmlns="http://www.w3.org/2000/svg"
   version="1.1"
   width="92.42717"
   height="66.656616"
   id="svg8280">
  <defs
     id="defs8282" />
  <metadata
     id="metadata8285">
    <rdf:RDF>
      <cc:Work
         rdf:about="">
        <dc:format>image/svg+xml</dc:format>
        <dc:type
           rdf:resource="http://purl.org/dc/dcmitype/StillImage" />
        <dc:title></dc:title>
      </cc:Work>
    </rdf:RDF>
  </metadata>
  <g
     transform="translate(-293.78641,-581.89101)"
     id="layer1">
    <g
       transform="matrix(1.25,0,0,-1.25,376.28395,623.20929)"
       id="g4955">
      <path
         d="m 0,0 c 6.154,1.361 8.512,6.721 7.83,14.542 -0.725,8.32 -5.888,19.393 -14.821,18.457 -6.4,-0.671 -12.964,-3.472 -19.296,-5.034 -6.737,-1.662 -13.115,-3.109 -19.296,-4.474 -1.813,-1.45 -4.706,-1.82 -5.034,-4.755 13.322,3.7 20.164,-18.889 13.144,-27.685 -1.114,-1.396 -3.104,-1.89 -3.636,-3.636 11.523,-1.717 14.061,11.145 12.305,20.975 2.567,-4.556 3.234,-14.049 0.279,-18.737 6.87,1.201 8.248,9.203 7.271,17.338 7.601,2.187 14.767,4.809 22.652,6.712 C 2.871,9.067 1.327,2.598 0,0"
         id="path4957"
         style="fill:red;fill-opacity:1;fill-rule:nonzero;stroke:none" />
    </g>
    <g
       transform="matrix(1.25,0,0,-1.25,312.66307,601.53642)"
       id="g4959">
      <path
         d="M 0,0 C -0.17,-0.016 -0.331,-0.042 -0.28,-0.28 10.274,-2.095 15.154,-21.206 6.712,-28.804 20.78,-25.466 14.818,2.826 0,0"
         id="path4961"
         style="fill:red;fill-opacity:1;fill-rule:nonzero;stroke:none" />
    </g>
    <g
       transform="matrix(1.25,0,0,-1.25,324.5482,623.90854)"
       id="g4963">
      <path
         d="m 0,0 c -0.013,6.586 -4.131,13.912 -8.949,15.381 -9.022,2.75 -12.233,-6.154 -11.186,-13.423 0.471,-3.274 2.438,-7.893 4.475,-8.11 -3.688,4.355 -5.776,19.732 2.796,20.694 C -3.501,15.593 1.107,0.533 -3.636,-8.11 -0.568,-7.598 0.005,-2.803 0,0"
         id="path4965"
         style="fill:red;fill-opacity:1;fill-rule:nonzero;stroke:none" />
    </g>
    <g
       transform="matrix(1.25,0,0,-1.25,360.20408,629.15179)"
       id="g4967">
      <path
         d="m 0,0 c 3.172,1.183 7.204,2.126 9.508,3.635 3.505,2.296 4.143,7.33 3.636,13.144 C 6.285,14.968 -0.031,12.615 -6.991,10.906 -5.699,5.174 -8.07,-0.649 -9.508,-3.636 -6.796,-2.166 -3.342,-1.247 0,0"
         id="path4969"
         style="fill:red;fill-opacity:1;fill-rule:nonzero;stroke:none" />
    </g>
    <g
       transform="matrix(1.25,0,0,-1.25,316.5082,612.37317)"
       id="g4971">
      <path
         d="M 0,0 C -1.888,-1.978 -4.006,-5.92 -2.797,-9.228 0.064,-8.05 2.004,-10.205 3.076,-11.745 3.757,-7.059 2.751,-2.135 0,0"
         id="path4973"
         style="fill:red;fill-opacity:1;fill-rule:nonzero;stroke:none" />
    </g>
    <g
       transform="matrix(1.25,0,0,-1.25,304.27345,638.24067)"
       id="g4975">
      <path
         d="M 0,0 C 1.139,-5.424 6.566,0.481 7.83,1.958 8.685,2.957 11.856,5.449 11.186,8.11 10.66,10.201 8.468,9.912 7.83,9.788 5.739,9.381 -0.576,2.741 0,0"
         id="path4977"
         style="fill:red;fill-opacity:1;fill-rule:nonzero;stroke:none" />
    </g>
    <g
       transform="matrix(1.25,0,0,-1.25,293.78645,641.38654)"
       id="g4979">
      <path
         d="M 0,0 C 0.018,-4.393 6.56,-2.634 8.39,0 6.364,0.324 7.068,4.167 6.432,5.034 4.497,3.065 -0.014,3.292 0,0"
         id="path4981"
         style="fill:red;fill-opacity:1;fill-rule:nonzero;stroke:none" />
    </g>
    <g
       transform="matrix(1.25,0,0,-1.25,304.27345,642.78517)"
       id="g4983">
      <path
         d="m 0,0 c -1.35,-6.725 3.106,-4.622 7.55,-2.796 3.268,1.341 6.468,1.31 5.594,5.313 C 8.45,7.474 5.589,-1.544 0,0"
         id="path4985"
         style="fill:red;fill-opacity:1;fill-rule:nonzero;stroke:none" />
    </g>
  </g>
</svg>
