<?xml version="1.0" encoding="utf-8"?>
<!-- Generator: Adobe Illustrator 15.0.2, SVG Export Plug-In . SVG Version: 6.00 Build 0)  -->
<!DOCTYPE svg PUBLIC "-//W3C//DTD SVG 1.1//EN" "http://www.w3.org/Graphics/SVG/1.1/DTD/svg11.dtd">
<svg version="1.1"
	 id="svg8280" xmlns:dc="http://purl.org/dc/elements/1.1/" xmlns:cc="http://creativecommons.org/ns#" xmlns:svg="http://www.w3.org/2000/svg" xmlns:rdf="http://www.w3.org/1999/02/22-rdf-syntax-ns#"
	 xmlns="http://www.w3.org/2000/svg" xmlns:xlink="http://www.w3.org/1999/xlink" x="0px" y="0px" width="400px" height="288.471px"
	 viewBox="-197.929 -142.742 400 288.471" enable-background="new -197.929 -142.742 400 288.471" xml:space="preserve">
<g id="layer1" transform="translate(-293.78641,-581.89101)">
	<g id="g4955" transform="matrix(1.25,0,0,-1.25,376.28395,623.20929)">
		<path id="path4957" fill="#FF0000" d="M61.281,4.196c26.632,5.89,36.836,29.087,33.884,62.935
			c-3.137,36.008-25.482,83.928-64.141,79.877c-27.698-2.904-56.105-15.025-83.508-21.787
			c-29.155-7.192-56.758-13.454-83.509-19.361c-7.844-6.275-20.364-7.878-21.783-20.58c57.653,16.013,87.264-81.746,56.882-119.81
			c-4.821-6.041-13.433-8.183-15.736-15.739c49.871-7.427,60.852,48.234,53.255,90.774c11.106-19.715,13.994-60.798,1.207-81.087
			C-32.438-35.385-26.473-0.754-30.7,34.453c32.894,9.463,63.905,20.811,98.03,29.046C73.706,43.436,67.022,15.442,61.281,4.196"/>
	</g>
	<g id="g4959" transform="matrix(1.25,0,0,-1.25,312.66307,601.53642)">
		<path id="path4961" fill="#FF0000" d="M-108.089,61.893c-0.738-0.067-1.434-0.179-1.211-1.211
			c45.674-7.854,66.793-90.56,30.257-123.444C-18.161-48.314-43.962,74.126-108.089,61.893"/>
	</g>
	<g id="g4963" transform="matrix(1.25,0,0,-1.25,324.5482,623.90854)">
		<path id="path4965" fill="#FF0000" d="M-76.451,2.335c-0.054,28.502-17.875,60.209-38.726,66.566
			c-39.048,11.902-52.944-26.632-48.41-58.093c2.035-14.167,10.548-34.159,19.366-35.095
			c-15.962,18.845-24.999,85.395,12.098,89.556C-91.601,69.817-71.66,4.64-92.186-32.763C-78.909-30.546-76.426-9.796-76.451,2.335"
			/>
	</g>
	<g id="g4967" transform="matrix(1.25,0,0,-1.25,360.20408,629.15179)">
		<path id="path4969" fill="#FF0000" d="M18.473-11.624C32.2-6.504,49.65-2.424,59.62,4.108c15.17,9.937,17.93,31.721,15.736,56.883
			c-29.683-7.837-57.018-18.021-87.14-25.416c5.592-24.806-4.669-50.009-10.89-62.934C-10.938-20.996,4.009-17.02,18.473-11.624"/>
	</g>
	<g id="g4971" transform="matrix(1.25,0,0,-1.25,316.5082,612.37317)">
		<path id="path4973" fill="#FF0000" d="M-97.855,33.043c-8.168-8.557-17.335-25.618-12.104-39.934
			c12.381,5.095,20.776-4.23,25.418-10.894C-81.595,2.495-85.947,23.807-97.855,33.043"/>
	</g>
	<g id="g4975" transform="matrix(1.25,0,0,-1.25,304.27345,638.24067)">
		<path id="path4977" fill="#FF0000" d="M-130.424-35.82c4.929-23.475,28.414,2.084,33.885,8.473
			c3.702,4.325,17.426,15.109,14.525,26.625c-2.276,9.048-11.763,7.8-14.525,7.263C-105.588,4.78-132.916-23.956-130.424-35.82"/>
	</g>
	<g id="g4979" transform="matrix(1.25,0,0,-1.25,293.78645,641.38654)">
		<path id="path4981" fill="#FF0000" d="M-158.344-44.194c0.078-19.012,28.391-11.4,36.309,0
			c-8.767,1.404-5.721,18.034-8.473,21.785C-138.883-30.929-158.404-29.945-158.344-44.194"/>
	</g>
	<g id="g4983" transform="matrix(1.25,0,0,-1.25,304.27345,642.78517)">
		<path id="path4985" fill="#FF0000" d="M-130.424-47.915c-5.843-29.105,13.443-20.005,32.675-12.102
			c14.143,5.802,27.991,5.67,24.208,22.991C-93.856-15.573-106.236-54.6-130.424-47.915"/>
	</g>
</g>
</svg>
